<svg xmlns="http://www.w3.org/2000/svg" viewBox="0 0 96 96" fill="none" stroke="#010000" stroke-width="4" stroke-linejoin="round" stroke-miterlimit="10" xmlns:v="https://vecta.io/nano"><path d="M61 66h14c1.7 0 3 1.3 3 3h0c0 1.7-1.3 3-3 3H21a3.01 3.01 0 0 1-3-3h0c0-1.7 1.3-3 3-3h29" stroke-linecap="round"/><path d="M54.7 92H41.3L34 78h28z"/><path d="M64 66h.5c1.9 0 3.5-1.6 3.5-3.5V56H52s-3 .8-3-3c0-2.9 3-3 3-3h16v-5h-9s-3 0-3-3c0-2.9 3-3 3-3h9v-9.5c0-1.9-1.6-3.5-3.5-3.5h-33c-1.9 0-3.5 1.6-3.5 3.5v33c0 1.9 1.6 3.5 3.5 3.5h.5" stroke-linecap="round"/><path d="M37.7 17h8.6l4.7 9H33zm4.3-3v-3c0-1.6 1.8-3 4-3h4c2.2 0 4-1.3 4-3V2"/></svg>