<?xml version="1.0"?>
<svg width="180" height="180" xmlns="http://www.w3.org/2000/svg" xmlns:svg="http://www.w3.org/2000/svg" xmlns:xlink="http://www.w3.org/1999/xlink">
 <!-- Created with SVG-edit - https://github.com/SVG-Edit/svgedit-->
 <defs>
  <symbol enable-background="new 0 0 32 32" height="32px" id="svg_2" version="1.1" viewBox="0 0 32 32" width="32px" xml:space="preserve" xmlns="http://www.w3.org/2000/svg" xmlns:xlink="http://www.w3.org/1999/xlink">
   <path d="m31.34,14.54l-3.96,-3.96c-0.39,-0.39 -0.85,-0.58 -1.38,-0.58c-1.19,0 -2,1.02 -2,2c0,0.52 0.19,0.99 0.58,1.38l0.62,0.62l-7.2,0l0,-7.2l0.62,0.62c0.39,0.39 0.86,0.58 1.38,0.58c0.98,0 2,-0.81 2,-2c0,-0.53 -0.19,-0.99 -0.58,-1.38l-3.97,-3.97c-0.37,-0.37 -0.72,-0.65 -1.45,-0.65s-1.13,0.33 -1.46,0.66l-3.96,3.96c-0.39,0.39 -0.58,0.85 -0.58,1.38c0,1.19 1.02,2 2,2c0.52,0 0.99,-0.19 1.38,-0.58l0.62,-0.62l0,7.2l-7.2,0l0.62,-0.62c0.39,-0.39 0.58,-0.86 0.58,-1.38c0,-0.98 -0.81,-2 -2,-2c-0.53,0 -0.99,0.19 -1.38,0.58l-3.96,3.96c-0.33,0.33 -0.66,0.73 -0.66,1.46s0.28,1.08 0.65,1.45l3.97,3.97c0.39,0.39 0.85,0.58 1.38,0.58c1.19,0 2,-1.02 2,-2c0,-0.52 -0.19,-0.99 -0.58,-1.38l-0.62,-0.62l7.2,0l0,7.2l-0.62,-0.62c-0.39,-0.39 -0.86,-0.58 -1.38,-0.58c-0.98,0 -2,0.81 -2,2c0,0.53 0.19,0.99 0.58,1.38l3.96,3.96c0.33,0.33 0.73,0.66 1.46,0.66s1.08,-0.28 1.45,-0.65l3.97,-3.97c0.39,-0.39 0.58,-0.85 0.58,-1.38c0,-1.19 -1.02,-2 -2,-2c-0.52,0 -0.99,0.19 -1.38,0.58l-0.62,0.62l0,-7.2l7.2,0l-0.62,0.62c-0.39,0.39 -0.58,0.86 -0.58,1.38c0,0.98 0.81,2 2,2c0.53,0 0.99,-0.19 1.38,-0.58l3.97,-3.97c0.37,-0.37 0.65,-0.72 0.65,-1.45s-0.33,-1.13 -0.66,-1.46z"/>
  </symbol>
 </defs>
 <g class="layer">
  <title>Layer 1</title>
  <rect fill="#3f3f3f" height="180" id="svg_4" opacity="0" stroke="#000000" stroke-width="0" width="180" x="0" y="0"/>
  <use id="svg_3" transform="matrix(5 0 0 5 0 0)" x="2" xlink:href="#svg_2" y="2"/>
 </g>
</svg>